# File created by Blade
# Date/Time:  Wed Jan 21 17:47:40 2015
#---------------------------------------------------------
:version 1.10
:name HOM
:units
  mass 1.0
  length 1.000000
  angle deg
:documentation
     Acclaim Skeleton File
:root
   axis xyz
   order TX TY TZ RX RY RZ
   position 0.000000 0.000000 0.000000
   orientation 0 0 0
:bonedata
   begin
      id 1
      name Spine_dum
      direction 0.000000 1.000000 0.000000
      length 7.067664
      axis 0.0 0.0 0.0 xyz
   end
   begin
      id 2
      name LeftUpLeg_dum
      direction 1.000000 0.000000 0.000000
      length 4.013002
      axis 0.0 0.0 0.0 xyz
   end
   begin
      id 3
      name RightUpLeg_dum
      direction -1.000000 0.000000 0.000000
      length 4.013002
      axis 0.0 0.0 0.0 xyz
   end
   begin
      id 4
      name Spine
      direction 0.000000 1.000000 0.000000
      length 0.000000
      axis 0.0 0.0 0.0 xyz
      dof rx ry rz
   end
   begin
      id 5
      name Spine_dum1
      direction 0.000000 1.000000 0.000000
      length 15.039886
      axis 0.0 0.0 0.0 xyz
   end
   begin
      id 6
      name Spine_dum2
      direction 0.000000 1.000000 0.000000
      length 10.530368
      axis 0.0 0.0 0.0 xyz
   end
   begin
      id 7
      name Spine_dum3
      direction 0.000000 1.000000 0.000000
      length 10.530368
      axis 0.0 0.0 0.0 xyz
   end
   begin
      id 8
      name Head
      direction 0.000000 1.000000 0.000000
      length 4.527550
      axis 0.0 0.0 0.0 xyz
      dof rx ry rz
   end
   begin
      id 9
      name LeftShoulder
      direction 1.000000 0.000000 0.000000
      length 7.028855
      axis 0.0 0.0 -90.0 xyz
      dof rx ry rz
   end
   begin
      id 10
      name LeftArm
      direction 1.000000 0.000000 0.000000
      length 10.797705
      axis 0.0 0.0 -90.0 xyz
      dof rx ry rz
   end
   begin
      id 11
      name LeftForeArm
      direction 1.000000 0.000000 0.000000
      length 7.907442
      axis 0.0 0.0 -90.0 xyz
      dof ry rz rx
   end
   begin
      id 12
      name LeftHand
      direction 0.000000 0.000000 0.000000
      length 0.000000
      axis 0.0 0.0 -90.0 xyz
      dof rx ry rz
   end
   begin
      id 13
      name LeftHand_dum1
      direction 0.000000 0.000000 0.000000
      length 0.000000
      axis 0.0 0.0 -90.0 xyz
   end
   begin
      id 14
      name LeftHand_dum2
      direction 1.000000 0.000000 0.000000
      length 3.937000
      axis 0.0 0.0 -90.0 xyz
   end
   begin
      id 15
      name LeftHandThumb1
      direction 0.000000 0.000000 1.000000
      length 3.937000
      axis 0.0 0.0 -90.0 xyz
      dof rx rz ry
   end
   begin
      id 16
      name RightShoulder
      direction -1.000000 0.000000 0.000000
      length 7.028855
      axis 0.0 0.0 90.0 xyz
      dof rx ry rz
   end
   begin
      id 17
      name RightArm
      direction -1.000000 0.000000 0.000000
      length 10.797705
      axis 0.0 0.0 90.0 xyz
      dof rx ry rz
   end
   begin
      id 18
      name RightForeArm
      direction -1.000000 0.000000 0.000000
      length 7.907442
      axis 0.0 0.0 90.0 xyz
      dof ry rz rx
   end
   begin
      id 19
      name RightHand
      direction 0.000000 0.000000 0.000000
      length 0.000000
      axis 0.0 0.0 90.0 xyz
      dof rx ry rz
   end
   begin
      id 20
      name RightHand_dum1
      direction 0.000000 0.000000 0.000000
      length 0.000000
      axis 0.0 0.0 90.0 xyz
   end
   begin
      id 21
      name RightHand_dum2
      direction -1.000000 0.000000 0.000000
      length 3.937000
      axis 0.0 0.0 90.0 xyz
   end
   begin
      id 22
      name RightHandThumb1
      direction 0.000000 0.000000 1.000000
      length 3.937000
      axis 0.0 0.0 90.0 xyz
      dof rx rz ry
   end
   begin
      id 23
      name LeftUpLeg
      direction 0.000000 -1.000000 0.000000
      length 16.899758
      axis 0.0 0.0 0.0 xyz
      dof rx ry rz
   end
   begin
      id 24
      name LeftLeg
      direction 0.000000 -1.000000 0.000000
      length 17.389183
      axis 0.0 0.0 0.0 xyz
      dof rx ry rz
   end
   begin
      id 25
      name LeftFoot
      direction 0.000000 -0.258819 0.965926
      length 4.924528
      axis 15.0 0.0 0.0 xyz
      dof rx ry rz
   end
   begin
      id 26
      name LeftToeBase
      direction 0.000000 0.000000 1.000000
      length 2.952750
      axis 0.0 0.0 0.0 xyz
      dof rx ry rz
   end
   begin
      id 27
      name RightUpLeg
      direction 0.000000 -1.000000 0.000000
      length 16.899758
      axis 0.0 0.0 0.0 xyz
      dof rx ry rz
   end
   begin
      id 28
      name RightLeg
      direction 0.000000 -1.000000 0.000000
      length 17.389183
      axis 0.0 0.0 0.0 xyz
      dof rx ry rz
   end
   begin
      id 29
      name RightFoot
      direction 0.000000 -0.258819 0.965926
      length 4.924528
      axis 15.0 0.0 0.0 xyz
      dof rx ry rz
   end
   begin
      id 30
      name RightToeBase
      direction 0.000000 0.000000 1.000000
      length 2.952750
      axis 0.0 0.0 0.0 xyz
      dof rx ry rz
   end
:hierarchy
   begin
      root Spine_dum LeftUpLeg_dum RightUpLeg_dum
      Spine_dum Spine
      LeftUpLeg_dum LeftUpLeg
      RightUpLeg_dum RightUpLeg
      Spine Spine_dum1 Spine_dum2 Spine_dum3
      Spine_dum1 Head
      Spine_dum2 LeftShoulder
      Spine_dum3 RightShoulder
      LeftShoulder LeftArm
      LeftArm LeftForeArm
      LeftForeArm LeftHand
      LeftHand LeftHand_dum1 LeftHand_dum2
      LeftHand_dum1 LeftHandThumb1
      RightShoulder RightArm
      RightArm RightForeArm
      RightForeArm RightHand
      RightHand RightHand_dum1 RightHand_dum2
      RightHand_dum1 RightHandThumb1
      LeftUpLeg LeftLeg
      LeftLeg LeftFoot
      LeftFoot LeftToeBase
      RightUpLeg RightLeg
      RightLeg RightFoot
      RightFoot RightToeBase
   end

# File created by Blade
# Date/Time:  Wed Jan 21 17:47:32 2015
# Frame Rate: 120.000 fps
#------------------------------------------------------
:FULLY-SPECIFIED
:DEGREES
238
root 13.737742 33.210217 -21.188374 -169.861067 76.607311 -178.473967
Spine -3.419913 -2.579865 -3.829029
Head 30.691544 -9.209244 1.315156
LeftShoulder -11.065118 -20.059249 -0.641539
LeftArm -20.361135 4.611734 -71.736473
LeftForeArm -0.801042 -0.000000 8.125248
LeftHand -0.263699 0.000000 4.876215
LeftHandThumb1 -26.253704 0.000000 33.147579
RightShoulder -11.255027 -17.668691 8.005337
RightArm 11.606050 -10.737162 70.329033
RightForeArm -19.965202 0.000000 17.588052
RightHand 1.460502 0.000000 5.247256
RightHandThumb1 -24.326973 -0.000000 -32.862282
LeftUpLeg 16.845258 7.931509 -1.805342
LeftLeg 1.760834 -0.000000 -0.000000
LeftFoot -32.149386 18.870097 -18.921294
LeftToeBase 12.954834 -0.000000 -0.000000
RightUpLeg -41.153835 4.283945 3.132649
RightLeg 38.564235 -0.000000 -0.000000
RightFoot -20.325295 -18.423939 13.684444
RightToeBase 20.927362 -0.000000 -0.000000
239
root 13.637601 33.130064 -21.225215 -170.801348 76.789496 -179.310523
Spine -3.445848 -2.486359 -4.059309
Head 30.770452 -9.093621 1.287611
LeftShoulder -11.217959 -19.993404 -0.651914
LeftArm -20.413341 5.261564 -71.739261
LeftForeArm -1.352315 -0.000000 8.577656
LeftHand -0.468347 0.000000 5.090643
LeftHandThumb1 -26.253704 0.000000 33.147579
RightShoulder -11.410511 -17.690867 8.157246
RightArm 11.354323 -10.721395 70.367490
RightForeArm -20.048236 -0.000000 17.516281
RightHand 1.484456 -0.000000 5.309175
RightHandThumb1 -24.326973 -0.000000 -32.862282
LeftUpLeg 17.078044 7.878962 -2.161430
LeftLeg 1.447447 -0.000000 -0.000000
LeftFoot -32.840196 18.789129 -18.889188
LeftToeBase 13.436100 -0.000000 -0.000000
RightUpLeg -41.601390 4.277848 2.900639
RightLeg 39.266077 -0.000000 -0.000000
RightFoot -20.361291 -18.474582 13.494302
RightToeBase 20.855836 -0.000000 -0.000000
240
root 13.539650 33.052650 -21.262238 -171.846263 76.982997 -180.244606
Spine -3.465767 -2.384948 -4.317761
Head 30.848114 -9.028733 1.225632
LeftShoulder -11.402837 -19.924730 -0.625542
LeftArm -20.368245 5.610329 -71.675013
LeftForeArm -1.611736 -0.000000 8.800049
LeftHand -0.482265 -0.000000 5.404165
LeftHandThumb1 -26.253704 0.000000 33.147579
RightShoulder -11.604445 -17.845866 8.323507
RightArm 11.234353 -10.652884 70.428441
RightForeArm -20.122516 -0.000000 17.478529
RightHand 1.431225 0.000000 5.329499
RightHandThumb1 -24.326973 -0.000000 -32.862282
LeftUpLeg 17.338051 7.817521 -2.556556
LeftLeg 1.070828 -0.000000 -0.000000
LeftFoot -33.541169 18.809435 -18.834094
LeftToeBase 14.134003 -0.000000 -0.000000
RightUpLeg -42.016536 4.314196 2.636701
RightLeg 39.931250 -0.000000 -0.000000
RightFoot -20.404456 -18.491081 13.381990
RightToeBase 20.778527 -0.000000 -0.000000
241
root 13.439796 32.983813 -21.301185 -173.025681 77.127004 -181.338631
Spine -3.518297 -2.325278 -4.616594
Head 30.955842 -8.942870 1.204165
LeftShoulder -11.561359 -19.828316 -0.614565
LeftArm -20.317922 5.501533 -71.441733
LeftForeArm -1.431649 -0.000000 8.965429
LeftHand -0.418432 -0.000000 5.451747
LeftHandThumb1 -26.253704 0.000000 33.147579
RightShoulder -11.766736 -17.801819 8.491191
RightArm 10.901170 -10.608882 70.487592
RightForeArm -20.316032 -0.000000 17.367710
RightHand 1.628376 -0.000000 5.449260
RightHandThumb1 -24.326973 -0.000000 -32.862282
LeftUpLeg 17.544930 7.634651 -3.008610
LeftLeg 0.715443 -0.000000 -0.000000
LeftFoot -34.190355 18.923191 -18.824456
LeftToeBase 14.752776 -0.000000 -0.000000
RightUpLeg -42.423072 4.255606 2.347316
RightLeg 40.542676 -0.000000 -0.000000
RightFoot -20.459672 -18.380949 13.320544
RightToeBase 20.792418 -0.000000 -0.000000
242
root 13.341518 32.917275 -21.341743 -174.165583 77.243313 -182.346622
Spine -3.539937 -2.285613 -4.859284
Head 31.085948 -8.803913 1.164391
LeftShoulder -11.685292 -19.748477 -0.620340
LeftArm -20.324487 5.296354 -71.204794
LeftForeArm -1.196201 0.000000 9.146121
LeftHand -0.505956 -0.000000 5.453301
LeftHandThumb1 -26.253704 0.000000 33.147579
RightShoulder -11.884852 -17.974291 8.594651
RightArm 10.728049 -10.549440 70.562141
RightForeArm -20.317437 0.000000 17.359019
RightHand 1.555235 -0.000000 5.613542
RightHandThumb1 -24.326973 -0.000000 -32.862282
LeftUpLeg 17.777852 7.581545 -3.372915
LeftLeg 0.409687 -0.000000 -0.000000
LeftFoot -34.797950 18.868381 -18.736767
LeftToeBase 15.441068 -0.000000 -0.000000
RightUpLeg -42.773104 4.149984 2.100710
RightLeg 41.138444 -0.000000 -0.000000
RightFoot -20.438864 -18.301897 13.204068
RightToeBase 20.792013 -0.000000 -0.000000
243
root 13.249060 32.857996 -21.377917 -175.233959 77.322307 -183.332968
Spine -3.644881 -2.270773 -5.099588
Head 31.257303 -8.725313 1.079396
LeftShoulder -11.846419 -19.555175 -0.630546
LeftArm -20.254467 5.219170 -70.996065
LeftForeArm -1.048025 -0.000000 9.279970
LeftHand -0.504827 -0.000000 5.474510
LeftHandThumb1 -26.253704 0.000000 33.147579
RightShoulder -12.071852 -18.058605 8.715911
RightArm 10.457729 -10.441090 70.684392
RightForeArm -20.552644 -0.000000 17.328382
RightHand 1.549523 -0.000000 5.691072
RightHandThumb1 -24.326973 -0.000000 -32.862282
LeftUpLeg 17.927321 7.581486 -3.693525
LeftLeg 0.170183 -0.000000 -0.000000
LeftFoot -35.340869 18.745219 -18.643651
LeftToeBase 16.039062 -0.000000 -0.000000
RightUpLeg -43.148013 4.022814 1.869563
RightLeg 41.705089 -0.000000 -0.000000
RightFoot -20.382696 -18.187734 13.173283
RightToeBase 20.582491 -0.000000 -0.000000
